<?xml version="1.0" standalone="no"?>
<!DOCTYPE svg PUBLIC "-//W3C//DTD SVG 20010904//EN"
 "http://www.w3.org/TR/2001/REC-SVG-20010904/DTD/svg10.dtd">
<svg version="1.0" xmlns="http://www.w3.org/2000/svg"
 width="748.000000pt" height="750.000000pt" viewBox="0 0 748.000000 750.000000"
 preserveAspectRatio="xMidYMid meet">

<g transform="translate(0.000000,750.000000) scale(0.100000,-0.100000)"
fill="#000000" stroke="none">
<path d="M2621 6725 c-130 -37 -249 -130 -308 -241 -63 -119 -63 -115 -63
-796 0 -400 -4 -619 -10 -623 -13 -8 -13 -411 0 -568 6 -65 12 -703 15 -1417
4 -1132 2 -1299 -10 -1304 -21 -8 -22 -301 -1 -313 11 -6 15 -45 18 -173 l3
-165 39 -79 c44 -90 132 -185 211 -228 28 -15 86 -37 129 -48 l79 -22 1041 5
c1135 5 1083 2 1209 62 113 53 215 173 258 302 l21 65 0 2512 c0 1829 -3 2530
-11 2579 -34 201 -165 358 -349 418 -64 21 -89 23 -577 29 -1404 20 -1637 21
-1694 5z m305 -239 c66 -31 120 -86 153 -155 35 -75 36 -184 3 -248 -35 -68
-82 -114 -147 -145 -81 -38 -185 -40 -260 -4 -108 51 -177 158 -177 275 0 133
77 243 199 287 63 22 170 18 229 -10z m577 -36 c68 -59 73 -136 13 -196 -88
-88 -226 -29 -226 97 0 37 6 55 27 79 32 38 55 49 110 49 33 1 50 -5 76 -29z
m55 -310 c65 -33 109 -76 144 -143 19 -34 23 -58 23 -127 0 -73 -4 -92 -27
-136 -65 -123 -192 -187 -328 -162 -70 12 -127 46 -178 103 -105 119 -97 291
17 406 67 66 118 87 217 88 60 1 80 -4 132 -29z m-684 -295 c264 -69 319 -419
86 -550 -8 -5 9 13 37 39 40 36 56 60 68 99 72 242 -131 458 -358 381 -68 -23
-141 -99 -161 -168 -21 -72 -20 -135 3 -196 11 -27 17 -50 15 -50 -2 0 15 -17
38 -38 25 -24 37 -41 30 -46 -17 -10 -81 60 -108 118 -18 39 -24 68 -24 121 1
142 86 253 222 289 69 19 82 19 152 1z m-84 -259 c0 -3 -4 -8 -10 -11 -5 -3
-10 -1 -10 4 0 6 5 11 10 11 6 0 10 -2 10 -4z m875 -22 c27 -11 38 -53 20 -80
-29 -44 -105 -23 -105 28 0 43 42 68 85 52z m-800 -34 c-3 -5 -10 -10 -16 -10
-5 0 -9 5 -9 10 0 6 7 10 16 10 8 0 12 -4 9 -10z m631 -19 c32 -20 64 -74 64
-110 0 -40 -28 -90 -62 -111 -51 -31 -110 -27 -152 10 -69 61 -69 139 0 200
42 36 101 41 150 11z"/>
<path d="M2691 6468 c-47 -13 -134 -103 -149 -154 -15 -53 -15 -145 0 -196 14
-49 88 -132 139 -158 20 -11 58 -24 84 -30 62 -14 150 8 211 52 47 34 61 51
18 23 -14 -9 -32 -14 -41 -11 -12 5 -7 15 22 47 49 54 65 96 65 166 0 69 -24
125 -71 171 -47 46 -81 62 -152 71 -34 5 -56 9 -49 10 6 0 12 6 12 11 0 12
-43 12 -89 -2z m194 -97 c3 -38 2 -37 -19 12 -14 34 -14 37 1 29 9 -5 17 -24
18 -41z m-118 -173 c-3 -7 -5 -2 -5 12 0 14 2 19 5 13 2 -7 2 -19 0 -25z m73
-8 c0 -5 -4 -10 -10 -10 -5 0 -10 5 -10 10 0 6 5 10 10 10 6 0 10 -4 10 -10z"/>
<path d="M3304 6095 c-78 -39 -134 -129 -134 -215 0 -115 98 -228 214 -247 93
-15 195 33 244 116 23 40 27 56 27 126 -1 93 -14 124 -75 179 -55 50 -97 66
-168 66 -42 0 -72 -7 -108 -25z m186 -220 c0 -19 -3 -36 -7 -38 -5 -3 -8 14
-8 38 0 24 3 41 8 38 4 -2 7 -19 7 -38z m-143 -7 c-3 -8 -6 -5 -6 6 -1 11 2
17 5 13 3 -3 4 -12 1 -19z m103 -18 c0 -5 -2 -10 -4 -10 -3 0 -8 5 -11 10 -3
6 -1 10 4 10 6 0 11 -4 11 -10z"/>
<path d="M3210 5685 c13 -14 26 -25 28 -25 3 0 -5 11 -18 25 -13 14 -26 25
-28 25 -3 0 5 -11 18 -25z"/>
<path d="M2570 5377 c0 -2 15 -16 33 -33 l32 -29 -29 33 c-28 30 -36 37 -36
29z"/>
<path d="M3620 5510 c0 -5 5 -10 10 -10 6 0 10 5 10 10 0 6 -4 10 -10 10 -5 0
-10 -4 -10 -10z"/>
<path d="M3399 5502 c-15 -2 -39 -17 -55 -33 -23 -24 -29 -39 -29 -75 0 -40 5
-50 37 -80 60 -55 139 -39 174 34 38 81 -33 166 -127 154z"/>
</g>
</svg>
