<?xml version="1.0" standalone="no"?>
<!DOCTYPE svg PUBLIC "-//W3C//DTD SVG 20010904//EN"
 "http://www.w3.org/TR/2001/REC-SVG-20010904/DTD/svg10.dtd">
<svg version="1.0" xmlns="http://www.w3.org/2000/svg"
 width="418.000000pt" height="500.000000pt" viewBox="0 0 418.000000 500.000000"
 preserveAspectRatio="xMidYMid meet">

<g transform="translate(0.000000,500.000000) scale(0.100000,-0.100000)"
fill="#000000" stroke="none">
<path d="M1485 4749 c-22 -12 -51 -31 -65 -43 -14 -11 -34 -26 -45 -32 -11 -6
-121 -67 -245 -136 -124 -69 -271 -148 -327 -177 -56 -29 -121 -69 -145 -90
-55 -49 -137 -179 -145 -228 -9 -62 -265 -960 -287 -1008 -25 -56 -37 -114
-27 -133 11 -21 399 -221 486 -250 92 -30 165 -44 220 -40 l49 3 14 50 c8 28
24 70 36 95 l21 45 7 -125 c3 -69 2 -179 -3 -245 -5 -66 -11 -230 -14 -365 -5
-184 -11 -266 -25 -330 -29 -133 -43 -284 -35 -397 5 -78 3 -108 -8 -130 -14
-28 -42 -228 -52 -383 -13 -192 -26 -317 -36 -350 -6 -19 -14 -47 -19 -63 -8
-25 -5 -29 23 -41 28 -11 251 -65 332 -80 17 -3 131 -17 255 -31 124 -14 241
-27 260 -29 19 -2 243 0 497 5 495 10 497 10 738 72 55 15 149 33 209 42 134
20 150 27 141 63 -15 59 -27 220 -35 477 -10 309 -16 351 -76 536 -24 75 -24
77 -9 164 28 163 15 356 -36 529 -30 100 -33 158 -14 281 12 80 14 137 9 212
-4 59 -3 103 2 103 11 -1 80 -107 89 -137 8 -27 6 -27 92 -8 98 23 170 47 419
141 122 46 226 84 232 84 20 0 22 17 7 46 -8 16 -15 37 -15 47 0 10 -9 35 -19
56 -11 21 -32 85 -46 142 -27 106 -106 381 -221 771 -35 120 -64 220 -64 222
0 13 -102 118 -168 173 -147 122 -329 236 -552 345 -336 163 -286 148 -420
127 -199 -31 -249 -34 -480 -27 -197 6 -238 10 -325 33 -55 14 -109 28 -120
30 -11 3 -38 -5 -60 -16z m525 -271 c0 -21 0 -21 -16 -2 -15 18 -15 18 -10 0
6 -17 2 -18 -51 -11 -77 9 -88 19 -33 26 95 13 110 11 110 -13z m50 18 c0 -2
-3 -11 -6 -20 -9 -23 -24 -20 -24 4 0 11 7 20 15 20 8 0 15 -2 15 -4z m61 -6
c10 0 19 -4 19 -10 0 -5 -3 -9 -7 -9 -5 1 -10 1 -13 -1 -3 -1 -15 -3 -27 -6
-18 -3 -23 1 -23 17 0 15 4 19 16 15 9 -3 24 -6 35 -6z"/>
</g>
</svg>
