<?xml version="1.0" standalone="no"?>
<!DOCTYPE svg PUBLIC "-//W3C//DTD SVG 20010904//EN"
 "http://www.w3.org/TR/2001/REC-SVG-20010904/DTD/svg10.dtd">
<svg version="1.0" xmlns="http://www.w3.org/2000/svg"
 width="600.000000pt" height="600.000000pt" viewBox="0 0 600.000000 600.000000"
 preserveAspectRatio="xMidYMid meet">

<g transform="translate(0.000000,600.000000) scale(0.100000,-0.100000)"
fill="#000000" stroke="none">
<path d="M3565 5035 c-28 -7 -58 -23 -70 -38 -19 -23 -26 -24 -123 -26 -57 0
-144 -6 -194 -11 -50 -6 -130 -13 -177 -16 -47 -3 -138 -14 -201 -24 -63 -10
-151 -24 -195 -30 -90 -14 -218 -56 -319 -107 -95 -48 -276 -186 -366 -280
-64 -66 -85 -97 -139 -208 -113 -231 -127 -275 -170 -535 -5 -36 -19 -105 -31
-155 -29 -127 -50 -327 -59 -561 -7 -188 -9 -204 -32 -245 -45 -79 -47 -84
-55 -104 -4 -11 -6 -24 -5 -30 2 -5 -1 -7 -5 -3 -12 12 -62 -30 -224 -187 -85
-82 -204 -197 -265 -255 -60 -58 -147 -141 -192 -184 -45 -44 -80 -84 -76 -89
3 -6 2 -7 -4 -4 -11 7 -126 -102 -205 -195 -98 -115 -97 -174 2 -217 38 -16
85 -24 193 -32 275 -19 405 -46 667 -139 63 -23 151 -54 195 -70 44 -16 141
-52 215 -80 356 -136 526 -183 769 -215 219 -29 371 -15 562 51 328 113 629
333 1092 798 l248 248 98 24 c55 13 139 39 188 58 93 36 168 56 298 80 45 8
119 24 165 36 72 18 90 27 118 57 17 20 32 42 32 49 0 7 15 25 34 39 19 14 37
34 41 43 4 9 15 97 26 194 10 97 25 207 34 244 26 114 56 430 57 604 1 159 0
170 -37 314 -69 274 -221 569 -341 664 -20 15 -56 46 -82 70 -89 81 -315 203
-344 186 -6 -4 -8 -3 -5 3 4 6 -5 14 -21 18 -15 3 -58 20 -97 37 -259 114
-393 143 -635 136 -123 -3 -125 -3 -126 19 -2 34 -21 51 -77 68 -61 18 -96 18
-162 0z m-1948 -1807 c-3 -8 -6 -5 -6 6 -1 11 2 17 5 13 3 -3 4 -12 1 -19z
m-37 -229 c0 -6 -4 -7 -10 -4 -5 3 -10 11 -10 16 0 6 5 7 10 4 6 -3 10 -11 10
-16z m-37 -174 c-3 -9 -8 -14 -10 -11 -3 3 -2 9 2 15 9 16 15 13 8 -4z m-183
-288 c0 -2 -10 -12 -22 -23 l-23 -19 19 23 c18 21 26 27 26 19z m-660 -627 c0
-5 -4 -10 -10 -10 -5 0 -10 5 -10 10 0 6 5 10 10 10 6 0 10 -4 10 -10z"/>
</g>
</svg>
