<?xml version="1.0" standalone="no"?>
<!DOCTYPE svg PUBLIC "-//W3C//DTD SVG 20010904//EN"
 "http://www.w3.org/TR/2001/REC-SVG-20010904/DTD/svg10.dtd">
<svg version="1.0" xmlns="http://www.w3.org/2000/svg"
 width="640.000000pt" height="763.000000pt" viewBox="0 0 640.000000 763.000000"
 preserveAspectRatio="xMidYMid meet">

<g transform="translate(0.000000,763.000000) scale(0.100000,-0.100000)"
fill="#000000" stroke="none">
<path d="M3035 6680 c-213 -15 -495 -66 -583 -105 -113 -51 -185 -156 -196
-287 -6 -74 -49 -211 -102 -328 -28 -61 -33 -82 -28 -115 l6 -41 -184 -63
c-179 -60 -398 -160 -450 -204 -25 -22 -77 -134 -117 -253 -24 -73 -160 -609
-190 -749 -33 -155 -93 -548 -125 -815 -15 -117 -19 -197 -46 -745 -10 -206
-31 -607 -50 -975 -12 -228 -12 -531 0 -624 7 -55 14 -73 33 -90 45 -38 48
-55 47 -259 l-2 -192 53 -8 c29 -4 145 -6 258 -5 l206 3 6 200 c4 110 12 232
18 270 62 368 156 908 172 980 50 226 169 638 191 660 10 10 8 -186 -12 -905
-11 -374 -22 -518 -46 -593 -11 -31 -13 -60 -9 -80 5 -18 10 -124 12 -237 3
-140 7 -207 15 -211 7 -4 179 -5 382 -2 373 5 1178 -9 1486 -26 91 -6 239 -12
330 -16 91 -3 223 -10 294 -16 89 -7 132 -7 139 0 7 7 6 99 -2 298 -7 158 -17
461 -21 673 -5 212 -14 482 -19 600 -11 238 -14 426 -6 418 3 -3 21 -66 41
-139 19 -74 59 -226 89 -339 111 -420 176 -721 190 -875 4 -44 14 -111 23
-150 11 -49 16 -135 19 -289 2 -164 6 -222 15 -228 15 -9 449 -9 493 1 l30 6
-3 182 c-4 180 -3 182 23 235 46 91 49 174 36 858 -13 664 -18 789 -56 1240
-41 478 -84 834 -160 1315 -58 360 -148 730 -196 796 -73 102 -234 195 -499
287 l-165 57 3 37 c4 41 -8 68 -48 114 -22 25 -30 49 -40 115 -26 184 -86 291
-230 412 -95 80 -280 147 -532 193 -106 19 -326 25 -493 14z"/>
</g>
</svg>
